<mxfile host="app.diagrams.net" modified="2021-09-24T07:44:27.152Z" agent="5.0 (Macintosh; Intel Mac OS X 10_15_7) AppleWebKit/605.1.15 (KHTML, like Gecko) Version/15.0 Safari/605.1.15" etag="e0oqhf6jiyr8Et0CyGuk" version="15.3.1" type="github">
  <diagram id="cbi_5YNyyTOZlltEN3Sk" name="Page-1">
    <mxGraphModel dx="946" dy="550" grid="0" gridSize="10" guides="1" tooltips="1" connect="1" arrows="1" fold="1" page="0" pageScale="1" pageWidth="827" pageHeight="1169" math="0" shadow="0">
      <root>
        <mxCell id="0" />
        <mxCell id="1" parent="0" />
        <mxCell id="AKLz8kXBmBINIcywqkMg-3" value="原始语料库" style="text;html=1;align=center;verticalAlign=middle;resizable=0;points=[];autosize=1;strokeColor=none;fillColor=none;strokeWidth=2;" vertex="1" parent="1">
          <mxGeometry x="34.5" y="200" width="70" height="18" as="geometry" />
        </mxCell>
        <mxCell id="AKLz8kXBmBINIcywqkMg-44" style="edgeStyle=orthogonalEdgeStyle;rounded=0;orthogonalLoop=1;jettySize=auto;html=1;startArrow=none;startFill=0;endArrow=classic;endFill=1;strokeColor=default;strokeWidth=3;" edge="1" parent="1" source="AKLz8kXBmBINIcywqkMg-4" target="AKLz8kXBmBINIcywqkMg-36">
          <mxGeometry relative="1" as="geometry" />
        </mxCell>
        <mxCell id="AKLz8kXBmBINIcywqkMg-4" value="" style="shape=image;html=1;verticalAlign=top;verticalLabelPosition=bottom;labelBackgroundColor=#ffffff;imageAspect=0;aspect=fixed;image=https://cdn2.iconfinder.com/data/icons/whcompare-servers-web-hosting/50/website-migration-128.png;strokeColor=default;strokeWidth=2;" vertex="1" parent="1">
          <mxGeometry x="34" y="466" width="91" height="91" as="geometry" />
        </mxCell>
        <mxCell id="AKLz8kXBmBINIcywqkMg-5" value="蜕变关系" style="text;html=1;align=center;verticalAlign=middle;resizable=0;points=[];autosize=1;strokeColor=none;fillColor=none;" vertex="1" parent="1">
          <mxGeometry x="50.5" y="545" width="58" height="18" as="geometry" />
        </mxCell>
        <mxCell id="AKLz8kXBmBINIcywqkMg-31" style="edgeStyle=none;rounded=0;orthogonalLoop=1;jettySize=auto;html=1;endArrow=classic;endFill=1;strokeColor=default;strokeWidth=3;startArrow=none;startFill=0;" edge="1" parent="1" source="AKLz8kXBmBINIcywqkMg-9" target="AKLz8kXBmBINIcywqkMg-10">
          <mxGeometry relative="1" as="geometry">
            <Array as="points">
              <mxPoint x="283" y="258" />
            </Array>
          </mxGeometry>
        </mxCell>
        <mxCell id="AKLz8kXBmBINIcywqkMg-9" value="" style="sketch=0;outlineConnect=0;fontColor=#232F3E;gradientColor=none;fillColor=#6CAE3E;strokeColor=default;dashed=0;verticalLabelPosition=bottom;verticalAlign=top;align=center;html=1;fontSize=12;fontStyle=0;aspect=fixed;pointerEvents=1;shape=mxgraph.aws4.elastic_file_system_infrequent_access;strokeWidth=2;" vertex="1" parent="1">
          <mxGeometry x="34" y="222" width="78" height="76" as="geometry" />
        </mxCell>
        <mxCell id="AKLz8kXBmBINIcywqkMg-62" value="" style="edgeStyle=elbowEdgeStyle;rounded=0;orthogonalLoop=1;jettySize=auto;elbow=vertical;html=1;startArrow=none;startFill=0;endArrow=none;endFill=0;strokeColor=default;strokeWidth=3;" edge="1" parent="1" source="AKLz8kXBmBINIcywqkMg-10">
          <mxGeometry relative="1" as="geometry">
            <mxPoint x="333" y="328" as="targetPoint" />
            <Array as="points" />
          </mxGeometry>
        </mxCell>
        <mxCell id="AKLz8kXBmBINIcywqkMg-10" value="" style="aspect=fixed;html=1;points=[];align=center;image;fontSize=12;image=img/lib/azure2/integration/System_Topic.svg;strokeColor=default;strokeWidth=2;" vertex="1" parent="1">
          <mxGeometry x="249" y="299.75" width="64" height="56.47" as="geometry" />
        </mxCell>
        <mxCell id="AKLz8kXBmBINIcywqkMg-11" value="热点抽取系统" style="text;html=1;align=center;verticalAlign=middle;resizable=0;points=[];autosize=1;strokeColor=none;fillColor=none;strokeWidth=2;" vertex="1" parent="1">
          <mxGeometry x="242" y="359.75" width="82" height="18" as="geometry" />
        </mxCell>
        <mxCell id="AKLz8kXBmBINIcywqkMg-47" value="" style="edgeStyle=orthogonalEdgeStyle;rounded=0;orthogonalLoop=1;jettySize=auto;html=1;startArrow=none;startFill=0;endArrow=classic;endFill=1;strokeColor=default;strokeWidth=3;" edge="1" parent="1" source="AKLz8kXBmBINIcywqkMg-23" target="AKLz8kXBmBINIcywqkMg-46">
          <mxGeometry relative="1" as="geometry" />
        </mxCell>
        <mxCell id="AKLz8kXBmBINIcywqkMg-23" value="" style="whiteSpace=wrap;html=1;verticalAlign=top;labelBackgroundColor=white;strokeColor=default;strokeWidth=2;" vertex="1" parent="1">
          <mxGeometry x="379" y="249" width="137" height="56" as="geometry" />
        </mxCell>
        <mxCell id="AKLz8kXBmBINIcywqkMg-20" value="" style="shape=image;html=1;verticalAlign=top;verticalLabelPosition=bottom;labelBackgroundColor=#ffffff;imageAspect=0;aspect=fixed;image=https://cdn4.iconfinder.com/data/icons/business-1221/24/Rank-128.png;strokeColor=default;strokeWidth=2;" vertex="1" parent="1">
          <mxGeometry x="385" y="262.25" width="34.75" height="34.75" as="geometry" />
        </mxCell>
        <mxCell id="AKLz8kXBmBINIcywqkMg-21" value="&lt;font style=&quot;font-size: 15px&quot;&gt;原始语料库&lt;br&gt;热点抽取结果&lt;/font&gt;" style="text;html=1;align=center;verticalAlign=middle;resizable=0;points=[];autosize=1;strokeColor=none;fillColor=none;strokeWidth=2;" vertex="1" parent="1">
          <mxGeometry x="417.65999999999997" y="265.34" width="100" height="34" as="geometry" />
        </mxCell>
        <mxCell id="AKLz8kXBmBINIcywqkMg-43" style="edgeStyle=orthogonalEdgeStyle;rounded=0;orthogonalLoop=1;jettySize=auto;html=1;startArrow=none;startFill=0;endArrow=none;endFill=0;strokeColor=default;strokeWidth=3;" edge="1" parent="1">
          <mxGeometry relative="1" as="geometry">
            <mxPoint x="184" y="440" as="targetPoint" />
            <mxPoint x="128" y="409" as="sourcePoint" />
          </mxGeometry>
        </mxCell>
        <mxCell id="AKLz8kXBmBINIcywqkMg-45" style="edgeStyle=orthogonalEdgeStyle;rounded=0;orthogonalLoop=1;jettySize=auto;html=1;startArrow=none;startFill=0;endArrow=classic;endFill=1;strokeColor=default;strokeWidth=3;" edge="1" parent="1" source="AKLz8kXBmBINIcywqkMg-36">
          <mxGeometry relative="1" as="geometry">
            <mxPoint x="283" y="376" as="targetPoint" />
          </mxGeometry>
        </mxCell>
        <mxCell id="AKLz8kXBmBINIcywqkMg-36" value="" style="sketch=0;outlineConnect=0;fontColor=#232F3E;gradientColor=none;fillColor=#6CAE3E;strokeColor=default;dashed=0;verticalLabelPosition=bottom;verticalAlign=top;align=center;html=1;fontSize=12;fontStyle=0;aspect=fixed;pointerEvents=1;shape=mxgraph.aws4.elastic_file_system_infrequent_access;strokeWidth=2;" vertex="1" parent="1">
          <mxGeometry x="244" y="401" width="78" height="76" as="geometry" />
        </mxCell>
        <mxCell id="AKLz8kXBmBINIcywqkMg-37" value="根据蜕变关系&lt;br&gt;变异后的语料库" style="text;html=1;align=center;verticalAlign=middle;resizable=0;points=[];autosize=1;strokeColor=none;fillColor=none;" vertex="1" parent="1">
          <mxGeometry x="233" y="481" width="94" height="32" as="geometry" />
        </mxCell>
        <mxCell id="AKLz8kXBmBINIcywqkMg-49" value="" style="edgeStyle=orthogonalEdgeStyle;rounded=0;orthogonalLoop=1;jettySize=auto;html=1;startArrow=none;startFill=0;endArrow=classic;endFill=1;strokeColor=default;strokeWidth=3;" edge="1" parent="1" source="AKLz8kXBmBINIcywqkMg-46">
          <mxGeometry relative="1" as="geometry">
            <mxPoint x="803" y="323.5199999999999" as="targetPoint" />
          </mxGeometry>
        </mxCell>
        <mxCell id="AKLz8kXBmBINIcywqkMg-46" value="&lt;div&gt;&lt;span style=&quot;font-size: 14px&quot;&gt;&lt;br&gt;&lt;/span&gt;&lt;/div&gt;&lt;div&gt;&lt;font style=&quot;font-size: 15px&quot;&gt;一致性检查&lt;/font&gt;&lt;br&gt;&lt;/div&gt;" style="whiteSpace=wrap;html=1;verticalAlign=top;strokeColor=default;strokeWidth=2;labelBackgroundColor=white;align=center;" vertex="1" parent="1">
          <mxGeometry x="616" y="294.05999999999995" width="120" height="60" as="geometry" />
        </mxCell>
        <mxCell id="AKLz8kXBmBINIcywqkMg-51" value="生成报告" style="text;html=1;align=center;verticalAlign=middle;resizable=0;points=[];autosize=1;strokeColor=none;fillColor=none;" vertex="1" parent="1">
          <mxGeometry x="811.5" y="373.71999999999997" width="58" height="18" as="geometry" />
        </mxCell>
        <mxCell id="AKLz8kXBmBINIcywqkMg-52" value="" style="shadow=0;dashed=0;html=1;strokeColor=none;fillColor=#4495D1;labelPosition=center;verticalLabelPosition=bottom;verticalAlign=top;align=center;outlineConnect=0;shape=mxgraph.veeam.2d.report;" vertex="1" parent="1">
          <mxGeometry x="811.5" y="289.2" width="64" height="68.55" as="geometry" />
        </mxCell>
        <mxCell id="AKLz8kXBmBINIcywqkMg-53" value="" style="sketch=0;outlineConnect=0;fontColor=#232F3E;gradientColor=none;fillColor=#6CAE3E;strokeColor=default;dashed=0;verticalLabelPosition=bottom;verticalAlign=top;align=center;html=1;fontSize=12;fontStyle=0;aspect=fixed;pointerEvents=1;shape=mxgraph.aws4.elastic_file_system_infrequent_access;strokeWidth=2;" vertex="1" parent="1">
          <mxGeometry x="40.5" y="368" width="78" height="76" as="geometry" />
        </mxCell>
        <mxCell id="AKLz8kXBmBINIcywqkMg-54" value="原始语料库" style="text;html=1;align=center;verticalAlign=middle;resizable=0;points=[];autosize=1;strokeColor=none;fillColor=none;strokeWidth=2;" vertex="1" parent="1">
          <mxGeometry x="38.5" y="444" width="70" height="18" as="geometry" />
        </mxCell>
        <mxCell id="AKLz8kXBmBINIcywqkMg-58" value="" style="edgeStyle=elbowEdgeStyle;rounded=0;orthogonalLoop=1;jettySize=auto;html=1;strokeColor=default;strokeWidth=2;" edge="1" parent="1">
          <mxGeometry relative="1" as="geometry">
            <mxPoint x="334" y="324" as="sourcePoint" />
            <mxPoint x="382" y="377" as="targetPoint" />
            <Array as="points">
              <mxPoint x="334" y="393.55" />
            </Array>
          </mxGeometry>
        </mxCell>
        <mxCell id="AKLz8kXBmBINIcywqkMg-61" value="" style="edgeStyle=elbowEdgeStyle;rounded=0;orthogonalLoop=1;jettySize=auto;html=1;strokeColor=default;strokeWidth=2;" edge="1" parent="1">
          <mxGeometry relative="1" as="geometry">
            <mxPoint x="334" y="324.59" as="sourcePoint" />
            <mxPoint x="381" y="279.99999999999994" as="targetPoint" />
            <Array as="points">
              <mxPoint x="334" y="304.59" />
            </Array>
          </mxGeometry>
        </mxCell>
        <mxCell id="AKLz8kXBmBINIcywqkMg-63" value="" style="whiteSpace=wrap;html=1;verticalAlign=top;labelBackgroundColor=white;strokeColor=default;strokeWidth=2;" vertex="1" parent="1">
          <mxGeometry x="380.66" y="352" width="137" height="56" as="geometry" />
        </mxCell>
        <mxCell id="AKLz8kXBmBINIcywqkMg-64" value="" style="shape=image;html=1;verticalAlign=top;verticalLabelPosition=bottom;labelBackgroundColor=#ffffff;imageAspect=0;aspect=fixed;image=https://cdn4.iconfinder.com/data/icons/business-1221/24/Rank-128.png;strokeColor=default;strokeWidth=2;" vertex="1" parent="1">
          <mxGeometry x="382.83" y="362.63" width="34.75" height="34.75" as="geometry" />
        </mxCell>
        <mxCell id="AKLz8kXBmBINIcywqkMg-65" value="&lt;font style=&quot;font-size: 15px&quot;&gt;变异语料库&lt;br&gt;热点抽取结果&lt;/font&gt;" style="text;html=1;align=center;verticalAlign=middle;resizable=0;points=[];autosize=1;strokeColor=none;fillColor=none;strokeWidth=2;" vertex="1" parent="1">
          <mxGeometry x="415.48999999999995" y="365.71999999999997" width="100" height="34" as="geometry" />
        </mxCell>
        <mxCell id="AKLz8kXBmBINIcywqkMg-66" value="" style="edgeStyle=orthogonalEdgeStyle;rounded=0;orthogonalLoop=1;jettySize=auto;html=1;startArrow=none;startFill=0;endArrow=none;endFill=0;strokeColor=default;strokeWidth=3;exitX=1;exitY=0.5;exitDx=0;exitDy=0;" edge="1" parent="1" source="AKLz8kXBmBINIcywqkMg-63">
          <mxGeometry relative="1" as="geometry">
            <mxPoint x="526" y="287" as="sourcePoint" />
            <mxPoint x="566" y="324" as="targetPoint" />
          </mxGeometry>
        </mxCell>
        <mxCell id="AKLz8kXBmBINIcywqkMg-68" value="" style="shape=image;html=1;verticalAlign=top;verticalLabelPosition=bottom;labelBackgroundColor=#ffffff;imageAspect=0;aspect=fixed;image=https://cdn1.iconfinder.com/data/icons/feather-2/24/check-circle-128.png;strokeColor=default;strokeWidth=2;" vertex="1" parent="1">
          <mxGeometry x="618" y="297" width="27" height="27" as="geometry" />
        </mxCell>
      </root>
    </mxGraphModel>
  </diagram>
</mxfile>
